<svg xmlns="http://www.w3.org/2000/svg" viewBox="0 0 21.99 22" fill="currentColor">
  <path d="M22 11.36A10.93 10.93 0 0 0 15.13 0.81a11 11 0 0 0-10.75 19l0.1 0.06A11 11 0 0 0 22 11.74a1 1 0 0 0 0-0.38ZM10.6 20a9 9 0 0 1-3.44-0.86 9.74 9.74 0 0 0 4.8-7.5A7.73 7.73 0 0 1 15 10.75C15.05 12.46 14.69 17.18 10.6 20Zm0.49-10.15A8 8 0 0 1 8.84 7.34 10.68 10.68 0 0 1 19 6.86c0.11 0.21 0.22 0.42 0.31 0.63a8.93 8.93 0 0 1 0.6 2.16A10.17 10.17 0 0 0 11.09 9.83ZM11 2a9.08 9.08 0 0 1 3.38 0.66A9.46 9.46 0 0 1 16.62 4 13.31 13.31 0 0 0 8.07 5.48a7 7 0 0 1-0.13-2.92A8.72 8.72 0 0 1 11 2ZM5.84 3.64a9.73 9.73 0 0 0 4.1 7.85 7.53 7.53 0 0 1-0.89 2.93A9.87 9.87 0 0 1 3.51 6 9 9 0 0 1 5.84 3.64ZM2.72 14.52a8.94 8.94 0 0 1-0.58-5.07 12.14 12.14 0 0 0 5.71 6.6 7.55 7.55 0 0 1-2.67 1.8A9.08 9.08 0 0 1 2.72 14.52Zm11.8 4.77h0l-0.35 0.13A13.71 13.71 0 0 0 17 10.81 6.89 6.89 0 0 1 19.94 12 9 9 0 0 1 14.52 19.29Z"/>
</svg>
